HIERARCHY
ROOT hip
{
	OFFSET 0.000000 0.000000 0.000000 
	CHANNELS 6 Xposition Yposition Zposition Xrotation Zrotation Yrotation
	JOINT abdomen
	{
		OFFSET 0.000000 3.402643 0.000000 
		CHANNELS 3 Xrotation Zrotation Yrotation
		JOINT chest
		{
			OFFSET 0.000000 8.438565 -0.680529 
			CHANNELS 3 Xrotation Zrotation Yrotation
			JOINT neck
			{
				OFFSET 0.000000 10.207942 -0.272212 
				CHANNELS 3 Xrotation Zrotation Yrotation
				JOINT head
				{
					OFFSET 0.000000 3.130431 0.000000 
					CHANNELS 3 Xrotation Zrotation Yrotation
					End Site
					{
						OFFSET 0.000000 3.130435 0.000000 
					}
				}
			}
			JOINT lCollar
			{
				OFFSET 3.470700 6.669187 -0.816635 
				CHANNELS 3 Yrotation Zrotation Xrotation
				JOINT lShldr
				{
					OFFSET 3.198488 0.000000 0.000000 
					CHANNELS 3 Zrotation Yrotation Xrotation
					JOINT lForeArm
					{
						OFFSET 10.139888 0.000000 0.000000 
						CHANNELS 3 Yrotation Zrotation Xrotation
						JOINT lHand
						{
							OFFSET 8.370511 0.000000 0.000000 
							CHANNELS 3 Zrotation Yrotation Xrotation
							End Site
							{
								OFFSET 4.083176 0.000000 0.000000 
							}
						}
					}
				}
			}
			JOINT rCollar
			{
				OFFSET -3.470700 6.669187 -0.816635 
				CHANNELS 3 Yrotation Zrotation Xrotation
				JOINT rShldr
				{
					OFFSET -3.198488 0.000000 0.000000 
					CHANNELS 3 Zrotation Yrotation Xrotation
					JOINT rForeArm
					{
						OFFSET -10.139888 0.000000 0.000000 
						CHANNELS 3 Yrotation Zrotation Xrotation
						JOINT rHand
						{
							OFFSET -8.370511 0.000000 0.000000 
							CHANNELS 3 Zrotation Yrotation Xrotation
							End Site
							{
								OFFSET -4.083176 0.000000 0.000000 
							}
						}
					}
				}
			}
		}
	}
	JOINT lThigh
	{
		OFFSET 5.308129 -1.633274 1.361059 
		CHANNELS 3 Xrotation Zrotation Yrotation
		JOINT lShin
		{
			OFFSET -2.041588 -20.007561 0.000000 
			CHANNELS 3 Xrotation Zrotation Yrotation
			JOINT lFoot
			{
				OFFSET 0.000000 -19.190928 -1.224953 
				CHANNELS 3 Xrotation Yrotation Zrotation
				End Site
				{
					OFFSET 0.000000 -2.449906 4.627600 
				}
			}
		}
	}
	JOINT rThigh
	{
		OFFSET -5.308129 -1.633274 1.361059 
		CHANNELS 3 Xrotation Zrotation Yrotation
		JOINT rShin
		{
			OFFSET 2.041588 -20.007561 0.000000 
			CHANNELS 3 Xrotation Zrotation Yrotation
			JOINT rFoot
			{
				OFFSET 0.000000 -19.190928 -1.224953 
				CHANNELS 3 Xrotation Yrotation Zrotation
				End Site
				{
					OFFSET 0.000000 -2.449906 4.627600 
				}
			}
		}
	}
}
MOTION
Frames: 15
Frame Time: 0.033333
1.827811 47.684948 -0.309841 5.979579 -0.525633 -11.865803 0.000000 0.000000 0.000000 8.087007 5.129678 -2.496033 8.430598 6.602091 -24.961105 2.156067 1.166222 -19.896830 -4.674546 13.466787 8.446056 -72.186691 6.255552 10.568847 -45.135822 -3.995672 10.126275 0.921535 9.491210 -3.537263 3.626891 10.806847 7.338730 58.579166 -21.028557 -1.598831 52.103733 2.851506 25.194069 9.575939 -6.898524 -3.851603 3.707786 6.938972 3.978133 9.314156 0.126226 11.124859 -16.884825 1.500956 -9.274861 -18.033072 -5.399243 -4.210176 20.432644 5.505507 -3.064846 -7.548036 -0.024487 1.017224 
2.027981 47.643742 -0.848163 6.188426 -1.148806 -11.389100 0.000000 0.000000 0.000000 7.779864 4.752853 -3.058826 8.434855 6.179083 -25.077261 3.023762 1.801034 -19.795231 -5.182437 12.370770 8.163624 -70.598740 6.658593 9.716968 -43.877045 -4.171072 8.375591 -0.770268 10.920739 -3.653717 3.548596 10.664492 7.049630 59.623291 -21.263823 -1.604397 52.084969 2.822272 25.783270 10.389632 -7.324691 -3.924884 0.146307 7.486788 3.632525 14.150606 0.439360 12.377831 -17.955643 1.685617 -9.956311 -18.441647 -5.008268 -4.130623 19.869249 5.685839 -3.495457 -6.636523 0.015088 1.031954 
2.299525 47.589214 -1.425971 6.327626 -1.696433 -11.059610 0.000000 0.000000 0.000000 7.549392 4.388720 -3.278734 8.648308 5.760869 -24.919123 3.890733 2.097240 -19.632620 -5.643090 11.252574 7.954970 -68.983833 6.542110 9.731840 -43.097355 -4.503762 8.495340 -1.428547 11.036408 -3.695010 3.546923 10.401915 6.846097 60.798470 -21.399303 -1.818548 51.931988 2.742781 26.683790 10.671340 -7.175753 -3.908053 -2.810174 7.658537 3.269678 18.002094 0.564097 14.354739 -18.676348 1.784077 -10.403296 -19.002121 -4.638377 -3.949886 19.306341 5.644516 -4.029865 -5.564542 0.002769 1.224875 
2.612415 47.559402 -2.025001 6.100200 -2.233222 -11.053553 0.000000 0.000000 0.000000 7.747415 3.956728 -3.179152 9.261925 5.407018 -24.480730 3.808957 2.586287 -19.541775 -5.754720 9.852571 8.104804 -67.104546 5.659663 10.195095 -42.809715 -4.890656 9.463675 -1.394710 10.216606 -3.677256 3.695163 10.033712 7.044644 61.974323 -20.970314 -1.854650 51.896587 2.697118 26.836555 11.209001 -7.703458 -3.993567 -4.538572 7.836950 3.161515 20.462652 0.534378 15.218602 -19.065294 1.809097 -10.363192 -18.990034 -4.315736 -3.729244 18.161535 5.617763 -4.525694 -4.116915 0.002240 1.356308 
2.954591 47.559139 -2.602036 5.150318 -2.435061 -10.986859 0.000000 0.000000 0.000000 8.601766 3.123371 -3.071093 9.895305 4.943924 -24.255568 3.670639 3.186581 -19.445265 -5.819999 7.821037 8.793509 -64.971657 4.201743 10.388039 -43.503551 -5.002435 10.001590 -1.152581 9.341225 -3.646529 4.081969 9.964185 7.798860 62.591930 -20.218998 -2.019030 52.269455 2.591320 26.689487 12.032529 -8.492062 -4.119599 -5.038135 7.830377 3.427723 21.793789 0.201247 14.681268 -19.103706 1.718736 -9.781281 -18.246918 -4.481417 -3.698823 16.956125 5.517917 -4.558666 -2.661645 -0.015062 1.458571 
3.326513 47.560230 -3.153863 4.240579 -2.090492 -10.906056 0.000000 0.000000 0.000000 9.397374 2.008061 -2.935996 10.079740 4.282373 -24.309912 4.194696 3.171578 -19.268709 -5.832520 5.185644 9.368999 -62.769112 2.640996 10.523963 -44.992615 -5.001838 11.008707 -0.185761 9.009993 -3.588131 4.385535 9.731796 8.506505 62.844189 -19.393339 -1.743383 52.511456 2.617834 26.932707 11.831340 -8.540932 -4.115881 -5.358908 7.203373 3.387303 22.460615 -0.167936 14.498501 -18.839697 1.638423 -9.043257 -17.790237 -5.165519 -3.719712 16.136427 5.303118 -4.268604 -1.466798 0.030380 1.680736 
3.741651 47.549931 -3.685848 4.065039 -1.889117 -10.904675 0.000000 0.000000 0.000000 9.477031 1.222763 -2.734406 10.061728 3.890766 -24.297436 4.383787 2.786044 -19.164112 -5.832789 3.263732 9.360589 -61.589325 1.387004 10.742519 -46.509922 -4.981594 12.390057 1.066343 8.354918 -3.516798 4.636482 9.533282 8.607359 63.117821 -18.891996 -1.030992 52.924324 2.738223 26.849745 11.300641 -8.917310 -4.141157 -6.469142 6.595444 3.164148 23.402727 -0.321799 14.867751 -18.674257 1.500835 -8.563467 -17.821051 -5.673694 -3.644871 14.998602 5.204627 -4.018246 -0.080837 0.044358 1.960036 
4.160707 47.512642 -4.078279 3.195914 -1.618119 -11.352447 0.000000 0.000000 0.000000 9.818412 0.268731 -2.242220 10.351720 3.467498 -24.138212 4.206474 2.481633 -19.159187 -5.490333 2.011521 9.596652 -61.651390 0.286362 11.088410 -48.055756 -4.806868 13.594112 2.393078 7.304393 -3.466970 5.109582 9.447628 8.959875 63.253365 -18.803701 -0.358654 53.588211 2.794034 26.739857 11.422740 -9.185076 -4.173199 -6.596589 5.815482 3.111480 24.120874 -0.587868 15.797162 -18.545982 1.397599 -8.120115 -17.418423 -6.463633 -3.742112 14.584814 5.251780 -2.441222 0.737210 0.039610 2.171449 
4.546447 47.468777 -4.398701 2.123736 -1.308687 -11.995481 0.000000 0.000000 0.000000 10.226869 -0.724176 -1.746356 10.453502 2.891719 -23.967701 4.271739 1.993655 -19.074295 -4.962127 1.057069 9.880020 -62.523457 -0.785336 11.287454 -49.463745 -4.672544 13.381326 1.589164 6.175659 -3.491119 5.656659 9.170776 9.374351 63.148792 -18.470909 0.729128 53.956409 2.954175 26.615513 11.521977 -9.208590 -4.184920 -6.243201 5.042703 3.292946 24.655352 -0.976781 16.482946 -18.562445 1.358392 -7.609035 -16.864244 -7.372676 -3.961622 14.527654 5.379553 -0.173518 1.202489 0.091552 2.363864 
4.906551 47.467609 -4.733011 1.778086 -1.383120 -12.376928 0.000000 0.000000 0.000000 10.157400 -1.167344 -1.557406 10.172636 2.538969 -23.745304 4.549122 1.774018 -18.896067 -4.762911 0.782439 9.783899 -64.270126 -1.486428 11.419736 -50.506809 -4.497913 12.722630 -0.059447 5.544006 -3.534023 6.139472 9.054899 9.313461 62.840725 -17.878786 2.127631 54.103302 3.118294 27.061684 11.096635 -9.582057 -4.200937 -6.535905 4.876880 3.485540 25.084757 -1.342240 16.609039 -18.484480 1.222872 -7.073982 -16.219965 -7.783087 -4.072848 13.169785 5.613297 1.562785 2.285854 0.144219 2.591035 
5.208691 47.485687 -4.996988 1.390837 -1.722950 -12.906497 0.000000 0.000000 0.000000 9.981091 -1.357196 -1.490450 10.143357 2.116941 -23.297974 4.879115 2.401717 -18.942902 -4.747413 0.659792 9.618094 -66.018089 -1.409262 11.915863 -51.446209 -4.458886 12.133696 -0.344828 5.594886 -3.532179 6.373761 8.504381 9.189120 63.127136 -16.982161 3.585437 53.987461 3.181369 28.115353 10.362878 -10.282355 -4.238938 -6.520597 5.046309 3.869070 25.343300 -1.629182 16.611816 -18.422508 1.155875 -6.622113 -15.073741 -7.936832 -4.216478 11.393078 5.965058 3.548527 3.293310 0.154616 2.832771 
5.450449 47.492359 -5.226236 1.275806 -2.279924 -13.409388 0.000000 0.000000 0.000000 9.708693 -1.195441 -1.750937 9.762016 1.673320 -22.900839 5.296878 2.811719 -18.734043 -4.706455 0.331547 9.354505 -67.270454 -1.283471 12.501910 -52.122635 -4.545918 11.773443 -0.917619 6.763072 -3.578824 6.139473 7.795005 8.955717 63.716671 -15.700828 4.555828 54.329952 3.095785 29.277746 9.209625 -10.615320 -4.206052 -6.738279 5.537134 4.299410 25.844965 -1.858160 16.534132 -18.538794 1.091305 -6.271437 -13.860611 -7.915777 -4.383403 9.242991 6.483446 5.461248 4.459712 0.234323 3.145604 
5.689084 47.532242 -5.413769 1.825594 -3.005644 -13.867145 0.000000 0.000000 0.000000 8.889771 -0.738338 -2.000055 9.294209 1.884527 -22.590931 5.235985 2.420378 -18.278257 -5.495199 1.058801 8.645972 -68.992310 -0.563261 13.441545 -52.653194 -4.487537 13.910807 -0.174040 7.797264 -3.563705 6.075906 7.932056 8.168234 64.122986 -15.357117 4.669881 55.504528 2.872599 29.347895 7.014565 -10.461717 -4.053726 -7.504907 6.177014 4.481397 26.181870 -1.886957 16.653841 -18.575035 1.087139 -5.984702 -12.311885 -7.586149 -4.730415 5.544876 7.204798 5.650705 6.295061 0.238983 3.267878 
5.864346 47.569946 -5.527701 2.237262 -3.499706 -14.422547 0.000000 0.000000 0.000000 8.011817 -0.484482 -2.220190 9.077250 2.043109 -22.231512 5.116815 2.388201 -17.916464 -6.279188 2.260277 7.912537 -70.906540 0.260102 14.636972 -52.821655 -4.330728 17.579153 -0.651194 7.190423 -3.568638 6.013773 7.892173 7.358972 64.983559 -15.342162 4.287994 56.870472 2.581823 28.367573 4.664213 -9.463189 -3.839820 -7.944293 6.587065 4.643221 26.315437 -1.909031 17.080698 -18.556374 1.003909 -5.899128 -11.791114 -7.398217 -4.980174 5.081156 7.591532 5.487776 6.111670 0.259758 3.246134 
5.957688 47.564781 -5.570585 1.890762 -3.594082 -15.010919 0.000000 0.000000 0.000000 7.701060 -0.634586 -2.667049 8.906357 1.693483 -21.982473 5.337067 2.655149 -17.460535 -6.270146 2.540287 7.603806 -71.935127 0.409002 15.652514 -53.050819 -4.243409 20.542837 -2.392295 6.038274 -3.593564 5.667927 7.365767 7.101721 65.700493 -14.675867 4.129665 58.534447 2.285014 26.780380 2.466159 -9.026201 -3.707340 -7.649300 6.438478 4.737780 26.367130 -1.921323 17.864586 -18.486670 1.050992 -5.960095 -12.262789 -7.810403 -5.464220 8.625693 7.826467 6.432117 3.689284 0.180589 3.012892 
